<svg width="280" height="174" viewBox="0 0 280 174" fill="none" xmlns="http://www.w3.org/2000/svg">
<g clip-path="url(#clip0)">
<path d="M177.921 151.608C178.741 151.197 180.176 150.992 180.791 150.17C181.406 149.554 181.406 148.321 181.816 147.5C182.841 145.651 185.3 145.034 187.35 144.213C189.4 143.391 192.27 142.569 191.655 139.693C191.45 138.255 190.015 136.612 191.655 135.585C191.86 135.379 192.065 135.379 192.27 135.379C194.114 134.763 196.164 136.406 197.804 137.023C199.034 137.433 200.469 137.639 201.699 137.844C202.723 137.844 204.773 137.433 205.798 137.844C207.028 138.461 207.233 140.309 208.258 141.337C210.103 142.98 212.767 142.364 214.817 143.596C216.457 144.418 216.457 145.445 216.867 147.089C217.482 149.143 219.122 149.143 221.172 149.348C225.066 149.759 228.346 147.294 231.42 145.034C232.65 144.007 233.675 141.953 235.315 141.337C236.75 140.72 241.054 140.72 242.079 141.953C242.694 142.775 242.489 143.391 242.079 144.213C241.874 144.623 241.669 145.034 241.669 145.445C241.464 146.472 241.669 147.705 241.669 148.732C241.464 151.814 238.39 150.992 236.34 152.019C233.47 153.457 231.625 152.43 228.756 152.224C225.066 152.019 224.861 154.69 223.221 157.155C221.376 160.236 218.917 161.469 215.432 162.907C212.357 164.139 212.357 167.015 209.898 168.864C208.463 169.891 207.438 169.686 206.618 171.33C205.798 172.562 205.388 173.384 203.748 174C201.084 174.822 198.419 173.589 195.959 172.357C194.934 171.74 194.319 171.74 193.909 170.097C193.704 169.07 194.114 167.837 194.319 166.81C194.934 164.756 195.549 161.058 193.704 159.415C191.86 157.566 188.785 159.62 186.735 159.209C184.275 158.798 182.021 155.511 179.151 156.538C177.921 156.949 177.716 157.771 176.281 157.155C175.051 156.538 174.846 155.511 175.051 154.279C175.051 152.841 176.896 152.224 177.921 151.608Z" fill="#1A1B1B" fill-opacity="0.1"/>
<path d="M11.2738 115.452C9.01903 111.959 6.5593 108.878 2.04978 108.467C1.43485 108.467 0.614934 108.467 0 108.467C0 107.851 0.204978 107.234 0.204978 106.618C0.409956 103.331 2.04978 101.072 3.89458 98.4009C4.91947 96.9629 5.94436 95.5249 5.94436 93.8814C6.14934 93.8814 6.5593 93.676 6.76427 93.676C11.6837 92.6488 8.4041 87.5131 8.81405 83.199C9.42899 77.8578 12.9136 73.5438 17.0132 70.2569C21.7277 66.5591 28.9019 62.6559 26.0322 55.2604C25.2123 53.4115 23.3675 51.7681 22.3426 50.1246C21.1127 48.0703 20.2928 45.8106 19.2679 43.5508C18.243 41.9074 17.2182 40.264 16.6032 38.4151C19.8829 38.0042 23.1625 36.9771 25.8272 34.7173C29.9268 31.4304 32.7965 28.1435 38.1259 26.5001C41.4056 25.6784 45.7101 25.2675 48.9897 26.2947C53.4993 27.7327 56.164 30.6087 61.4934 30.1978C66.8228 29.787 70.7174 26.5001 76.0468 27.7327C79.1215 28.349 80.5564 29.787 83.836 29.787C85.8858 29.787 88.1405 29.9924 90.1903 29.5815C94.9048 28.7598 98.3894 29.1707 103.104 29.9924C107.818 30.8141 116.223 34.101 120.322 30.1978C124.012 26.7055 120.527 21.3643 124.217 17.872C127.496 14.996 135.081 15.8177 135.695 10.4765V10.271C137.95 11.0928 141.025 11.5036 142.05 10.6819C144.305 9.03845 142.46 4.10811 145.534 2.87553C146.559 2.46467 147.994 3.28639 149.429 3.28639C151.274 3.28639 152.094 2.6701 153.529 1.84837C155.783 0.204926 158.653 -0.205936 161.933 -0.000505131C163.572 0.204926 165.622 0.615788 166.852 1.64294C168.287 2.87553 168.287 4.31354 169.107 5.75156C170.132 7.39501 171.772 7.60044 173.001 8.83302C174.026 9.86018 174.026 11.2982 174.436 12.5308C175.051 14.996 175.461 19.9263 178.126 20.748C179.561 21.1589 180.996 20.1317 182.43 20.1317C184.275 20.1317 185.3 20.5426 186.735 21.5697C189.81 23.4186 191.449 26.0892 193.089 28.9653C193.909 30.6087 195.139 32.4576 196.369 33.6902C198.419 35.3336 199.444 34.5119 201.493 34.101C203.748 33.6902 206.823 33.6902 208.873 34.3065C210.717 34.9227 211.947 36.1553 214.202 35.9499C218.097 35.539 218.712 31.225 222.606 30.6087C227.731 29.787 229.985 32.4576 233.88 35.1282C239.004 38.8259 243.514 36.5662 249.253 36.1553C251.918 35.9499 254.993 35.539 257.452 36.5662C259.707 37.5933 261.142 39.0314 263.397 39.4422C267.906 40.4694 276.31 41.0857 275.285 47.6595C275.081 49.5083 274.056 50.9464 274.056 52.7952C274.056 56.9039 276.72 60.6016 277.95 64.2994C278.77 66.97 279.59 69.846 279.795 72.5166C280.205 75.8035 278.155 76.8307 275.08 78.0632C268.726 80.7338 258.477 84.4316 258.272 92.8543C258.272 95.5249 259.092 96.3466 257.452 98.8118C257.042 99.4281 256.632 99.8389 256.223 100.25C254.173 102.51 251.508 103.742 248.843 105.386C247.613 106.207 241.874 111.548 240.849 109.7C235.52 109.289 233.88 115.041 230.19 117.095C227.731 118.328 224.041 117.711 221.786 119.56C220.761 120.382 220.761 121.204 219.941 122.231C218.917 123.463 219.121 122.847 217.482 123.258C214.202 124.285 213.997 125.312 212.562 128.188C211.332 130.654 209.488 131.886 206.618 132.297C202.313 132.708 197.599 131.27 193.499 132.502C191.859 132.913 191.04 133.94 190.015 134.762C189.4 135.378 188.785 135.995 188.17 136.611C186.325 138.049 183.865 137.844 181.406 137.844C175.871 137.844 169.107 140.309 163.572 138.46C162.548 138.049 160.908 137.022 160.908 135.789C160.703 134.351 161.523 134.351 162.548 133.324C165.007 130.448 163.572 128.599 160.498 126.956C158.243 125.723 155.988 125.312 153.938 127.161C152.299 128.394 151.274 132.502 148.609 131.064C146.559 130.037 145.944 121.204 143.485 126.134C142.05 128.805 141.23 133.324 142.05 136.2C142.665 138.049 144.714 141.336 142.255 142.979C140 144.417 137.335 141.336 135.081 141.952C134.466 144.623 135.081 146.883 135.49 149.348C135.9 152.429 134.261 153.662 131.391 155.305C129.546 156.127 127.086 156.949 127.906 159.619C128.316 161.057 129.956 161.468 129.956 163.112C129.956 164.139 129.546 164.961 128.931 165.782C126.061 161.674 122.167 163.933 118.067 166.399C113.968 168.864 110.483 168.658 107.818 166.193C108.023 164.755 108.433 163.317 108.843 162.29C110.278 159.208 112.943 156.949 114.788 154.073C116.018 152.224 116.837 150.375 116.632 148.115C116.632 146.677 115.403 144.417 115.608 143.185C115.813 140.72 116.223 142.363 117.657 142.363C119.297 142.363 119.912 141.541 121.347 141.131C123.192 140.72 125.856 141.131 127.701 141.131C130.981 141.131 132.006 140.72 131.186 137.433C130.571 135.173 130.161 132.502 128.111 131.27C126.061 130.037 123.397 130.037 121.962 127.778C120.527 125.518 121.962 122.847 120.322 120.793C118.477 118.739 116.018 119.355 114.788 116.479C113.148 112.576 115.608 108.262 111.508 106.002C107.204 103.537 103.104 105.796 98.5944 104.975C94.6998 104.358 91.8301 100.455 87.7306 99.8389C85.4758 99.4281 83.836 100.455 81.7862 101.072C79.7365 101.688 77.8916 101.688 75.6369 101.688C71.7423 101.688 71.5373 103.742 71.3323 106.002C67.6427 106.002 65.388 108.878 62.7233 111.138C59.4436 114.014 54.9341 116.479 50.8345 117.917C45.5051 119.56 44.0703 116.479 39.3558 115.452C36.0761 114.63 31.3616 115.452 27.877 115.041C24.3924 115.041 20.4978 115.246 17.2182 115.041C15.7833 115.041 13.5285 114.63 12.2987 115.041C11.8887 115.246 11.6837 115.452 11.2738 115.452Z" fill="#1A1B1B" fill-opacity="0.1"/>
<rect x="128" y="44" width="10" height="10" fill="#D05216"/>
<rect x="128" y="103" width="10" height="10" fill="#A34115"/>
<rect x="189" y="43" width="10" height="10.5711" fill="#1A1B1B"/>
<rect x="168" y="77" width="10" height="10" fill="#003082"/>
</g>
<defs>
<clipPath id="clip0">
<rect width="280" height="174" fill="white"/>
</clipPath>
</defs>
</svg>
