<svg width="79" height="69" viewBox="0 0 79 69" fill="#ffffff" xmlns="http://www.w3.org/2000/svg">
<path d="M10.4268 35.3143C12.1415 34.8783 13.807 34.4296 15.4859 34.034C20.3441 32.8891 24.8423 30.8102 29.4713 29.0627C33.2817 27.6247 36.9652 26.3664 41.0275 25.7711C46.7991 24.9266 52.7601 24.6721 58.5904 24.8662C64.7674 25.0732 70.9255 25.8554 76.9452 27.2108C76.9944 27.6449 76.4222 27.8464 75.9902 27.9746C75.5582 28.1029 75.0864 28.5956 75.4123 28.8978C75.4786 28.9601 75.5676 28.993 75.6548 29.0261C76.5795 29.3741 77.5041 29.7239 78.4288 30.072C76.7045 29.821 75.0087 29.3942 73.3754 28.8026C73.7809 28.4948 74.1864 28.1889 74.5937 27.8812C74.7207 27.786 74.8628 27.6504 74.8212 27.5002C74.7813 27.3537 74.5976 27.3042 74.4441 27.2786C70.3001 26.5752 66.1278 26.0367 61.9385 25.6631C59.2517 25.4231 56.5554 25.2582 53.8572 25.2344C51.2026 25.2106 48.5802 25.4689 45.9332 25.5568C41.9371 25.6887 38.1835 26.8206 34.4148 27.9069C30.0587 29.1616 25.9507 31.0446 21.7234 32.6272C18.2219 33.9387 14.5498 34.6695 10.9061 35.4901C10.7754 35.5176 10.6049 35.5561 10.4268 35.3143Z" fill="#ffffff"/>
<path d="M47.986 26.2343C50.2843 26.0823 52.5827 25.9742 54.8849 26.0438C59.9989 26.1995 65.0315 26.8003 69.848 28.5936C69.9636 28.6375 70.0849 28.6705 70.1985 28.7199C70.388 28.8023 70.6912 28.8372 70.5642 29.1321C70.4581 29.3812 70.1588 29.3024 69.9788 29.253C69.1091 29.0204 68.2545 28.7364 67.3867 28.4928C64.7132 27.7473 61.9809 27.3535 59.2183 27.0329C56.5561 26.7252 53.8807 26.6556 51.2241 26.6007C49.1834 26.5585 47.1011 26.7637 45.0396 27.0348C41.9435 27.4414 38.891 27.9854 35.9275 28.9196C31.6927 30.2549 27.6265 31.9639 23.8236 34.2224C23.5622 34.3781 23.1642 34.4422 23.3745 34.9533C23.4674 35.1804 23.1434 35.435 22.8478 35.4844C22.5011 35.5431 22.1827 35.5046 21.9061 35.2115C21.637 34.9276 21.6712 34.6364 21.8189 34.3762C21.9989 34.052 22.3249 33.8487 22.6697 33.6747C27.8349 31.0719 33.1858 28.8922 38.8228 27.4725C41.8071 26.7233 44.8804 26.2819 47.986 26.2343Z" fill="#ffffff"/>
<path d="M16.5399 35.5706C10.8461 36.7008 5.15796 37.8034 0.0912955 40.7891C-0.170185 40.2872 0.186035 40.0308 0.45699 39.7633C1.34565 38.8915 2.51284 38.5197 3.65918 38.102C7.39949 36.7392 11.3236 36.1768 15.2402 35.5797C15.6645 35.5138 16.108 35.5706 16.5399 35.5706Z" fill="#ffffff"/>
<path d="M12.5016 14.698L13.682 18.1471H17.5076L14.4134 20.2792L15.5957 23.7283L12.5016 21.5963L9.40742 23.7283L10.5878 20.2792L7.49365 18.1471H11.3192L12.5016 14.698Z" fill="#ffffff"/>
<path d="M23.5583 4.02576L24.7407 7.47488H28.5662L25.4721 9.60696L26.6525 13.0561L23.5583 10.924L20.4641 13.0561L21.6465 9.60696L18.5522 7.47488H22.3778L23.5583 4.02576Z" fill="#ffffff"/>
<path d="M39.3111 0L40.4916 3.44912H44.3172L41.223 5.58123L42.4054 9.03038L39.3111 6.89823L36.2151 9.03038L37.3974 5.58123L34.3032 3.44912H38.1288L39.3111 0Z" fill="#ffffff"/>
<path d="M54.8839 4.0437L56.0663 7.49464H59.89L56.7958 9.62675L57.9782 13.0758L54.8839 10.9438L51.7898 13.0758L52.9721 9.62675L49.8779 7.49464H53.7016L54.8839 4.0437Z" fill="#ffffff"/>
<path d="M66.3532 14.9191L67.5356 18.3682H71.3593L68.265 20.5003L69.4474 23.9494L66.3532 21.8191L63.259 23.9494L64.4413 20.5003L61.3472 18.3682H65.1728L66.3532 14.9191Z" fill="#ffffff"/>
<path d="M66.3375 44.8379L67.518 48.2888H71.3436L68.2493 50.4209L69.4317 53.8701L66.3375 51.7379L63.2414 53.8701L64.4238 50.4209L61.3296 48.2888H65.1552L66.3375 44.8379Z" fill="#ffffff"/>
<path d="M54.8688 55.6418L56.0512 59.091H59.8748L56.7807 61.2231L57.963 64.6722L54.8688 62.5401L51.7746 64.6722L52.957 61.2231L49.8628 59.091H53.6865L54.8688 55.6418Z" fill="#ffffff"/>
<path d="M39.3482 59.5929L40.5287 63.0438H44.3543L41.2601 65.1741L42.4425 68.6251L39.3482 66.4929L36.2522 68.6251L37.4345 65.1741L34.3403 63.0438H38.1659L39.3482 59.5929Z" fill="#ffffff"/>
<path d="M23.5954 55.5645L24.7777 59.0135H28.6033L25.5091 61.1457L26.6914 64.5948L23.5954 62.4627L20.5012 64.5948L21.6835 61.1457L18.5894 59.0135H22.4149L23.5954 55.5645Z" fill="#ffffff"/>
<path d="M12.3615 44.7645L13.5438 48.2136H17.3694L14.2753 50.3457L15.4557 53.7948L12.3615 51.6627L9.26728 53.7948L10.4497 50.3457L7.35547 48.2136H11.181L12.3615 44.7645Z" fill="#ffffff"/>
<path d="M9.21143 45.2175V38.5254H10.6402V45.2175H9.21143ZM15.1889 45.2175L13.5667 39.9673H13.5252C13.5836 41.0353 13.6128 41.7479 13.6128 42.1049V45.2175H12.3362V38.5254H14.281L15.8757 43.6429H15.9033L17.5947 38.5254H19.5396V45.2175H18.2077V42.05C18.2077 41.9004 18.2092 41.728 18.2123 41.5328C18.2185 41.3375 18.24 40.8187 18.2768 39.9764H18.2353L16.4978 45.2175H15.1889ZM22.669 41.6746H23.139C23.5784 41.6746 23.9071 41.5892 24.1253 41.4183C24.3434 41.2444 24.4525 40.9926 24.4525 40.6631C24.4525 40.3305 24.3604 40.0848 24.176 39.9261C23.9947 39.7674 23.709 39.6881 23.3188 39.6881H22.669V41.6746ZM25.8951 40.6127C25.8951 41.3329 25.6677 41.8837 25.213 42.2651C24.7613 42.6466 24.1176 42.8373 23.2819 42.8373H22.669V45.2175H21.2402V38.5254H23.3925C24.2098 38.5254 24.8305 38.7009 25.2545 39.0518C25.6815 39.3997 25.8951 39.92 25.8951 40.6127ZM33.2829 41.8623C33.2829 42.97 33.0063 43.8215 32.4533 44.4165C31.9003 45.0115 31.1076 45.3091 30.0752 45.3091C29.0429 45.3091 28.2501 45.0115 27.6971 44.4165C27.144 43.8215 26.8675 42.967 26.8675 41.8531C26.8675 40.7393 27.144 39.8895 27.6971 39.3036C28.2532 38.7146 29.049 38.4202 30.0844 38.4202C31.1198 38.4202 31.911 38.7162 32.4579 39.3082C33.0079 39.9002 33.2829 40.7516 33.2829 41.8623ZM28.3653 41.8623C28.3653 42.61 28.5082 43.173 28.7939 43.5513C29.0797 43.9297 29.5068 44.1189 30.0752 44.1189C31.2151 44.1189 31.785 43.3667 31.785 41.8623C31.785 40.3548 31.2182 39.6011 30.0844 39.6011C29.516 39.6011 29.0874 39.7918 28.7986 40.1733C28.5098 40.5517 28.3653 41.1147 28.3653 41.8623ZM36.108 41.4961H36.5689C37.0205 41.4961 37.3539 41.4214 37.569 41.2718C37.784 41.1223 37.8916 40.8873 37.8916 40.5669C37.8916 40.2495 37.781 40.0237 37.5597 39.8895C37.3416 39.7552 37.0021 39.6881 36.5413 39.6881H36.108V41.4961ZM36.108 42.6496V45.2175H34.6793V38.5254H36.6426C37.5583 38.5254 38.2357 38.6917 38.6751 39.0243C39.1144 39.3539 39.3341 39.8559 39.3341 40.5303C39.3341 40.9239 39.2251 41.2748 39.0069 41.5831C38.7888 41.8883 38.48 42.1278 38.0806 42.3017C39.0945 43.8062 39.755 44.7781 40.0623 45.2175H38.4769L36.8685 42.6496H36.108ZM43.5096 45.2175H42.0809V39.7064H40.2513V38.5254H45.3393V39.7064H43.5096V45.2175Z" fill="#ffffff"/>
<path d="M50.7085 39.6102C50.1708 39.6102 49.7544 39.8116 49.4595 40.2144C49.1645 40.6141 49.017 41.1726 49.017 41.8897C49.017 43.3819 49.5808 44.128 50.7085 44.128C51.1816 44.128 51.7546 44.0105 52.4275 43.7756V44.9656C51.8745 45.1946 51.2569 45.309 50.5748 45.309C49.5946 45.309 48.8449 45.0145 48.3258 44.4255C47.8065 43.8335 47.5469 42.9852 47.5469 41.8805C47.5469 41.1848 47.6744 40.576 47.9294 40.0542C48.1844 39.5293 48.5501 39.128 49.0263 38.8503C49.5056 38.5696 50.0663 38.4292 50.7085 38.4292C51.3629 38.4292 52.0204 38.5864 52.681 38.9007L52.2201 40.0542C51.9682 39.9351 51.7147 39.8314 51.4597 39.7429C51.2046 39.6544 50.9543 39.6102 50.7085 39.6102ZM57.9903 45.2174L57.5017 43.6245H55.0453L54.5567 45.2174H53.0174L55.3955 38.4979H57.1422L59.5296 45.2174H57.9903ZM57.1606 42.4344C56.7091 40.991 56.454 40.1747 56.3957 39.9855C56.3403 39.7963 56.3004 39.6468 56.2758 39.5369C56.1744 39.9275 55.8841 40.8933 55.4048 42.4344H57.1606ZM61.8109 41.4961H62.2718C62.7234 41.4961 63.0568 41.4213 63.2719 41.2717C63.4869 41.1222 63.5945 40.8872 63.5945 40.5669C63.5945 40.2494 63.4839 40.0236 63.2626 39.8894C63.0445 39.7551 62.705 39.688 62.2442 39.688H61.8109V41.4961ZM61.8109 42.6495V45.2174H60.3822V38.5253H62.3455C63.2611 38.5253 63.9386 38.6916 64.378 39.0242C64.8173 39.3538 65.037 39.8558 65.037 40.5302C65.037 40.9238 64.9279 41.2748 64.7098 41.583C64.4917 41.8882 64.1828 42.1277 63.7835 42.3016C64.7973 43.8061 65.4579 44.778 65.7652 45.2174H64.1798L62.5714 42.6495H61.8109ZM70.5905 43.359C70.5905 43.9632 70.3708 44.4393 69.9315 44.7872C69.4952 45.135 68.8868 45.309 68.1065 45.309C67.3875 45.309 66.7514 45.1747 66.1984 44.9061V43.5879C66.6532 43.7893 67.0372 43.9312 67.3506 44.0136C67.6671 44.0959 67.9559 44.1371 68.217 44.1371C68.5304 44.1371 68.7701 44.0776 68.936 43.9586C69.105 43.8397 69.1895 43.6626 69.1895 43.4277C69.1895 43.2964 69.1526 43.1805 69.0789 43.0798C69.0052 42.976 68.8961 42.8769 68.7517 42.7822C68.6103 42.6877 68.3199 42.5366 67.8806 42.3291C67.4689 42.1369 67.1601 41.9522 66.9543 41.7752C66.7484 41.5983 66.584 41.3923 66.4611 41.1573C66.3382 40.9224 66.2768 40.6477 66.2768 40.3334C66.2768 39.7414 66.478 39.276 66.8805 38.9373C67.2861 38.5985 67.8453 38.4292 68.558 38.4292C68.9084 38.4292 69.2417 38.4704 69.5582 38.5528C69.8777 38.6352 70.2111 38.7511 70.5583 38.9007L70.0974 40.0038C69.7379 39.8573 69.4399 39.7551 69.2033 39.6972C68.9698 39.6391 68.7394 39.6102 68.512 39.6102C68.2416 39.6102 68.0342 39.6727 67.8898 39.7978C67.7454 39.923 67.6732 40.0862 67.6732 40.2876C67.6732 40.4127 67.7024 40.5226 67.7607 40.6172C67.8192 40.7087 67.9113 40.7987 68.0373 40.8872C68.1664 40.9727 68.469 41.1283 68.9452 41.3541C69.5751 41.6532 70.0068 41.9538 70.2403 42.2558C70.4737 42.555 70.5905 42.9226 70.5905 43.359Z" fill="#ffffff"/>
</svg>
