<svg width="30" height="30" viewBox="0 0 30 30" fill="none" xmlns="http://www.w3.org/2000/svg">
<rect x="1" y="1" width="28" height="28" stroke="#003082" stroke-width="2"/>
<g clip-path="url(#clip0)">
<path d="M20.3799 16.7776C19.6513 16.7776 18.9376 16.6638 18.2611 16.4406C17.931 16.3269 17.5561 16.4145 17.3392 16.6359L15.9981 17.6486C14.4594 16.8274 13.4746 15.8432 12.6645 14.3156L13.6499 13.0063C13.898 12.7582 13.9869 12.3952 13.8806 12.0551C13.6555 11.3743 13.5411 10.66 13.5411 9.93257C13.5411 9.4184 13.1227 9 12.6086 9H10.4326C9.9184 9 9.5 9.4184 9.5 9.93257C9.5 15.9314 14.3811 20.8125 20.3799 20.8125C20.8941 20.8125 21.3125 20.3941 21.3125 19.8799V17.7102C21.3125 17.196 20.8941 16.7776 20.3799 16.7776Z" fill="#003082"/>
</g>
<defs>
<clipPath id="clip0">
<rect width="11.8125" height="11.8125" fill="white" transform="translate(9.5 9)"/>
</clipPath>
</defs>
</svg>
