<svg width="18" height="18" viewBox="0 0 18 18" fill="none" xmlns="http://www.w3.org/2000/svg">
<path d="M10.3219 1.32178H3.22696C2.9049 1.32178 2.64379 1.58288 2.64379 1.90495C2.64379 2.22702 2.9049 2.48812 3.22696 2.48812H6.25835C5.61879 2.88866 5.04212 3.38057 4.54694 3.9457H0.583173C0.261106 3.94574 0 4.20688 0 4.52895C0 4.85102 0.261106 5.11212 0.583173 5.11212H3.7033C3.03047 6.25315 2.64376 7.58213 2.64376 8.99988C2.64376 10.6496 3.16685 12.1793 4.05567 13.4323H2.401C2.07893 13.4323 1.81783 13.6934 1.81783 14.0155C1.81783 14.3375 2.07893 14.5986 2.401 14.5986H5.07355C5.43717 14.9397 5.83391 15.2458 6.25835 15.5116H0.643326C0.321258 15.5116 0.0601525 15.7727 0.0601525 16.0948C0.0601525 16.4168 0.321258 16.678 0.643326 16.678H10.3219C14.5557 16.678 18 13.2335 18 8.99985C18 4.76615 14.5556 1.32178 10.3219 1.32178ZM10.3219 15.5117C6.73131 15.5117 3.81017 12.5905 3.81017 8.99992C3.81017 5.4093 6.73131 2.48816 10.3219 2.48816C13.9125 2.48816 16.8336 5.4093 16.8336 8.99988C16.8336 12.5905 13.9125 15.5117 10.3219 15.5117Z" fill="white"/>
<path d="M10.322 4.23682C7.69547 4.23682 5.55859 6.37369 5.55859 9.00025C5.55859 10.5666 6.31864 11.9587 7.4892 12.8274C7.49993 12.8364 7.51058 12.8456 7.52215 12.8539C7.53515 12.8634 7.54848 12.8722 7.56194 12.8804C8.34115 13.4363 9.29406 13.7637 10.322 13.7637C11.35 13.7637 12.3029 13.4363 13.0821 12.8804C13.0956 12.8722 13.1089 12.8634 13.1219 12.8539C13.1334 12.8455 13.1441 12.8364 13.1549 12.8274C14.3254 11.9587 15.0855 10.5666 15.0855 9.00025C15.0855 6.37372 12.9486 4.23682 10.322 4.23682ZM10.9052 5.45073C12.0433 5.63709 13.0034 6.3592 13.517 7.34896L12.0068 7.83967C11.7445 7.46002 11.3574 7.17318 10.9052 7.03849V5.45073H10.9052ZM11.2025 9.00022C11.2025 9.48572 10.8075 9.88071 10.322 9.88071C9.83652 9.88071 9.44154 9.48576 9.44154 9.00022C9.44154 8.51471 9.83652 8.11973 10.322 8.11973C10.8075 8.11973 11.2025 8.51471 11.2025 9.00022ZM9.73882 5.45073V7.03849C9.28661 7.17318 8.89957 7.46002 8.63723 7.83967L7.12709 7.34896C7.64073 6.3592 8.60081 5.63706 9.73882 5.45073ZM7.76501 11.5275C7.12242 10.8774 6.72498 9.98438 6.72498 9.00022C6.72498 8.81593 6.73897 8.63484 6.76583 8.45793L8.27646 8.94878C8.27604 8.96594 8.27512 8.98295 8.27512 9.00022C8.27512 9.46765 8.43298 9.89874 8.6977 10.2437L7.76501 11.5275ZM10.322 12.5973C9.74192 12.5973 9.19355 12.4591 8.70783 12.2141L9.64074 10.9301C9.85399 11.0056 10.0832 11.0472 10.322 11.0472C10.5608 11.0472 10.7901 11.0056 11.0033 10.9301L11.9362 12.2141C11.4505 12.459 10.9021 12.5973 10.322 12.5973ZM12.879 11.5275L11.9463 10.2438C12.2111 9.89878 12.3689 9.46769 12.3689 9.00025C12.3689 8.98299 12.3681 8.96597 12.3676 8.94882L13.8782 8.45797C13.9051 8.63487 13.9191 8.81596 13.9191 9.00025C13.9191 9.98438 13.5217 10.8774 12.879 11.5275Z" fill="white"/>
</svg>
